PathFileType	4	(X/Y/Z)	62_1_31_p1_0-303_filt_butterworth.trc
DataRate	CameraRate	NumFrames	NumMarkers	Units	OrigDataRate	OrigDataStartFrame	OrigNumFrames
48.0	48.0	5	27	m	48.0	151	303
Frame#	Time	RHip			RKnee			RAnkle			RBigToe			RSmallToe			RHeel			LHip			LKnee			LAnkle			LBigToe			LSmallToe			LHeel			Neck			Head			Nose			RShoulder			RElbow			RWrist			RThumb			RIndex			RPinky			LShoulder			LElbow			LWrist			LThumb			LIndex			LPinky			
		X1	Y1	Z1	X2	Y2	Z2	X3	Y3	Z3	X4	Y4	Z4	X5	Y5	Z5	X6	Y6	Z6	X7	Y7	Z7	X8	Y8	Z8	X9	Y9	Z9	X10	Y10	Z10	X11	Y11	Z11	X12	Y12	Z12	X13	Y13	Z13	X14	Y14	Z14	X15	Y15	Z15	X16	Y16	Z16	X17	Y17	Z17	X18	Y18	Z18	X19	Y19	Z19	X20	Y20	Z20	X21	Y21	Z21	X22	Y22	Z22	X23	Y23	Z23	X24	Y24	Z24	X25	Y25	Z25	X26	Y26	Z26	X27	Y27	Z27	
151	3.145833333333333	0.34804280625226475	0.5050259192958698	0.22705918505376943	0.32021568685527463	0.7325845238459482	0.5197012919108966	0.34196396245272254	1.019352979268976	0.8167859991496605	0.28104956805440484	0.9313169780796362	0.9482559755562492	0.35086607431437283	0.9366951666588899	0.9348171487761264	0.3410052712964694	1.141065590477182	0.83619807803305	0.16583798490408017	0.5793046682948388	0.2023829438171474	0.1634801092701765	0.7625549487035249	0.5107197073174853	0.15509691850677532	1.0477548933432776	0.7912719316852153	0.11386197905956968	0.9135674226545567	0.9243995287747805	0.07991767579719608	0.9796922492068862	0.8862852233904952	0.18548593982117045	1.1106128236198956	0.8202284939689247	0.022927219111713047	0.08815755396811017	0.05564886117345803	-0.10839324925417479	-0.1635871452285049	-0.048642421212218956	-0.08367453281761447	-0.06709213098335624	0.0848663925173706	0.1377041390717641	0.01886879661281031	0.1091721160032257	0.12831614938824212	0.12299209572108087	0.302824237093989	-0.1006919938183843	0.1452709320844323	0.36097880946376965	-0.179299552083179	0.19931226906180113	0.34026087585668263	-0.22746850325078333	0.1553545963546373	0.3957436795860265	-0.1882469399916004	0.13629754062665417	0.41452032170253306	-0.03775111537020359	0.21390879670065033	0.012713481193340622	-0.006763509767216172	0.43113335334939845	0.10439261410596559	-0.12660489286677568	0.2628748317686152	0.2830803656383241	-0.17443404436148202	0.1933704169570763	0.3601216754640747	-0.2183880196361173	0.16863806981055338	0.38712807241562613	-0.20622745958022118	0.20511775114892972	0.37761826006863974
152	3.1666666666666665	0.3480207340277898	0.5120772469277243	0.22521799582077376	0.3166760844650713	0.7280550683074111	0.5193198679662236	0.34147223490619516	1.0241290849596667	0.8139650852471525	0.2809849076561547	0.9314294660392528	0.9482523776150131	0.353806807288754	0.9399280990563486	0.9331820368552824	0.34107443914665797	1.141240820544376	0.8349870608470089	0.1626637413962288	0.5829380963935409	0.20210809326407897	0.16192695731033885	0.7708764108219024	0.5081656995870635	0.15441173267399363	1.0478305318804195	0.791150473273554	0.11431550797767949	0.9049774117298877	0.925678143176026	0.08001396202582314	0.9762597386361836	0.8882482038629704	0.18648660923670815	1.1102512438051286	0.8181126513912157	0.025232929480835834	0.08650620509769225	0.06068603560186802	-0.10504861304174666	-0.16227089870070255	-0.047025562953026026	-0.07766373612554377	-0.07092674928764661	0.08913379800732207	0.1387533090395738	0.02041450818555012	0.11006857683676494	0.12562801699224316	0.12302690259831742	0.3065995994898734	-0.10202156743643614	0.1587694120867379	0.3568247125471309	-0.17467757781355814	0.20315854869100702	0.33963007962523384	-0.22160328497029264	0.1554759251030324	0.40164325203000484	-0.1852911843571364	0.13795711700149596	0.4187910283112136	-0.03368173545743805	0.20550600422737342	0.01583050489683205	-0.008142803585736273	0.4351903728813602	0.10481445192872504	-0.12441286725525326	0.2573138896793377	0.2845161433368207	-0.17146911260624814	0.1834380011634953	0.3641044076934333	-0.21348438901956054	0.16182497959582615	0.3933445344355941	-0.1986752835978719	0.19733235766638108	0.38381664418890704
153	3.1875	0.3476067397892993	0.516186485633366	0.2253020457286456	0.3123267428104383	0.7216535731645296	0.5191169296329261	0.33975543265702707	1.0237991002552476	0.8124875161567783	0.2808601132854454	0.9315646831702946	0.948340794832929	0.35570408726500957	0.9403719842790738	0.9321574836206177	0.3411893404722604	1.141587601672822	0.8341822034222273	0.15894924050275283	0.5871181209371632	0.20303374181753805	0.15968825356664004	0.7764516165051547	0.5049307040978139	0.15381608430764482	1.0467451612787968	0.7895452332218302	0.11483422347786261	0.9021714658583857	0.9259253259466274	0.0805104896450884	0.9702308488030268	0.8900541156931889	0.18651262596051005	1.1082019677078028	0.8153164363067957	0.0272796233410464	0.0857404244570801	0.06517724194282044	-0.10059589649497502	-0.15931861382446416	-0.047081410451544264	-0.07075681591563215	-0.07489396505541221	0.09266415521170174	0.14283425738608344	0.02760569020343361	0.1092320663710184	0.12641902836175622	0.12469554442404247	0.30573784717706326	-0.10288796148441161	0.1877311141808043	0.3519597695462605	-0.17104881973910527	0.20470162601237823	0.33218856844792566	-0.2089339274682138	0.14369794748984127	0.41052351867893444	-0.18264427065486272	0.13929365361334156	0.421649518516344	-0.030294477539443917	0.19936421275053984	0.01770121468031677	-0.010511952731408033	0.43235523190918956	0.10698966817585723	-0.12139774343032451	0.2528306770517612	0.2863765651676894	-0.16615862691713154	0.1698331343440241	0.37007620619436765	-0.20808327445431984	0.15955179500708014	0.39631668393436725	-0.19418901603056438	0.18528587990079348	0.39006503795453257
154	3.208333333333333	0.3455487562010512	0.5158049670118082	0.22696610706140272	0.30834603078412737	0.7164982974395858	0.5188564192832102	0.33720323686103754	1.0202382739046492	0.8112483228501732	0.2811493076974888	0.9317830683892125	0.9484865752002734	0.3558584162397853	0.9399966032555611	0.9318764186139277	0.3413025991839872	1.140828505252987	0.8332813213847313	0.15716980011975196	0.5874849058264681	0.2041284148327673	0.15770189707166807	0.7773400542560595	0.5017799591482051	0.153164795234039	1.0446830008991417	0.786423271211341	0.11517207371231969	0.9043884128546665	0.9257390180009348	0.08098062408326806	0.9658162914145221	0.8908864813703601	0.18596531386609566	1.105285513073594	0.8118287103408851	0.029059681583922237	0.08638553413341864	0.06787194200449109	-0.09562835199653846	-0.16523350257122804	-0.0430767631576112	-0.06523141343087197	-0.08047746550061607	0.09624227474452116	0.14655125182957432	0.034828917483163684	0.10921406898492232	0.12732209962577495	0.12584306159828715	0.30347915613438875	-0.10243692130160906	0.22152639898252402	0.34951715303290165	-0.17022434095707817	0.2081112256760424	0.32183644592692373	-0.19332837760594912	0.12078939677609325	0.4183755537144206	-0.18045862140987587	0.13973750276611188	0.42197774658516174	-0.0296542242930185	0.1948779567124874	0.017081201972567427	-0.015516565127184738	0.4211702685183262	0.11024503116496373	-0.11851868294792708	0.24961978413256974	0.28755976894889	-0.15782605082923712	0.1484314013961405	0.37881765026086434	-0.19904528566588786	0.1524338324200366	0.4005196050035732	-0.19432532676013858	0.18022644603202936	0.3936863500738816
155	3.2291666666666665	0.34156107199335767	0.5153487546149241	0.22742462517402176	0.3056983046677467	0.7146536399506862	0.519588557390844	0.3358225385380802	1.0202063656750802	0.8103333232928565	0.2824608292544556	0.9321325072252995	0.9486602209967895	0.35541837702251444	0.9399180210145432	0.9319217603107885	0.3412104235183262	1.141581500486526	0.8325393939201993	0.15691712747063716	0.5822473920941018	0.20527284626653242	0.15676001063034958	0.7758982760770081	0.4983784862898062	0.15197639372193122	1.0431782212608716	0.7839132307877978	0.11524216127248718	0.9063100912342923	0.9257631747812896	0.08114383172085554	0.9648403185256926	0.8908517565333474	0.1864167727181092	1.1047443006770337	0.8095018727415331	0.031404673922070664	0.0862587736165169	0.07047639899496855	-0.08875195568541994	-0.18107104298049712	-0.03447214282109719	-0.05914962338512506	-0.08662672265548194	0.10010881843561797	0.14767121748547363	0.038016445421024836	0.11264863390288175	0.125641007738267	0.13009179965501744	0.3051664849920958	-0.09962909760725393	0.2436516664487206	0.34995684672952665	-0.1711963787900021	0.21184121250354085	0.31939363329314147	-0.18116946259825345	0.10045240591685056	0.422911275634806	-0.17716113598061367	0.1412424922963286	0.420330388862602	-0.030005047374503213	0.19198258508837002	0.015261709410891475	-0.02441916749469239	0.40219183917664375	0.11497684882308602	-0.11623629928686424	0.2448932877156018	0.2886664795858433	-0.15116711380363754	0.12902133653540532	0.38773945865917014	-0.18625992978674183	0.13858716836060597	0.40769299432258044	-0.19358510368533005	0.1853560279287581	0.39537797572074374
